<svg width="88" height="84" viewBox="0 0 88 84" fill="none" xmlns="http://www.w3.org/2000/svg">
<path d="M42.5732 2.00879C43.0223 0.626827 44.9777 0.62682 45.4268 2.00879L54.3008 29.3213C54.6355 30.3513 55.5957 31.0488 56.6787 31.0488H85.3975C86.8505 31.0488 87.4547 32.9086 86.2793 33.7627L63.0449 50.6436C62.169 51.2802 61.8021 52.4086 62.1367 53.4385L71.0117 80.751C71.4607 82.1329 69.8787 83.2828 68.7031 82.4287L45.4697 65.5479C44.5935 64.9112 43.4065 64.9112 42.5303 65.5479L19.2969 82.4287C18.1213 83.2828 16.5393 82.1329 16.9883 80.751L25.8633 53.4385C26.1979 52.4086 25.831 51.2802 24.9551 50.6436L1.7207 33.7627C0.545257 32.9086 1.14949 31.0488 2.60254 31.0488H31.3213C32.4043 31.0488 33.3645 30.3513 33.6992 29.3213L42.5732 2.00879Z" fill="#585858" stroke="#585858"/>
</svg>
